<?xml version="1.0" standalone="no"?>
<!DOCTYPE svg PUBLIC "-//W3C//DTD SVG 20010904//EN"
 "http://www.w3.org/TR/2001/REC-SVG-20010904/DTD/svg10.dtd">
<svg version="1.0" xmlns="http://www.w3.org/2000/svg"
 width="1280.000000pt" height="640.000000pt" viewBox="0 0 1280.000000 640.000000"
 preserveAspectRatio="xMidYMid meet">
<metadata>
Created by potrace 1.15, written by Peter Selinger 2001-2017
</metadata>
<g transform="translate(0.000000,640.000000) scale(0.100000,-0.100000)"
fill="#000000" stroke="none">
<path d="M10120 6326 c-247 -65 -455 -225 -618 -474 -250 -384 -325 -921 -197
-1412 6 -24 3 -27 -44 -39 -39 -10 -61 -10 -103 -1 -29 7 -92 10 -141 8 -48
-1 -87 0 -87 5 0 4 24 56 54 115 52 103 56 109 95 120 68 21 117 104 128 216
11 116 -47 239 -131 280 -34 17 -44 17 -92 7 -29 -7 -74 -23 -100 -36 l-47
-24 -43 37 c-95 84 -242 128 -394 118 -93 -6 -144 -20 -675 -181 -358 -108
-1065 -322 -1195 -362 -250 -75 -422 -210 -523 -409 -57 -113 -70 -233 -41
-385 21 -109 56 -181 124 -250 103 -104 227 -145 415 -136 105 5 138 11 265
50 124 38 700 213 783 238 19 5 27 4 25 -2 -6 -19 -369 -143 -377 -130 -4 6
-14 10 -22 7 -8 -3 -40 -12 -71 -21 -45 -12 -58 -20 -58 -35 0 -13 -14 -24
-52 -38 -215 -78 -292 -98 -718 -187 -1028 -213 -1621 -316 -1727 -300 -23 3
-187 44 -365 91 -178 47 -564 148 -858 225 -294 76 -541 142 -549 147 -7 4
-23 41 -35 82 -37 126 -87 202 -141 216 -112 28 -322 -82 -567 -298 l-67 -59
-738 -69 c-406 -38 -849 -79 -985 -91 l-247 -23 22 -37 c12 -20 180 -291 372
-603 237 -383 354 -564 364 -561 7 3 327 232 711 510 384 278 704 505 711 505
33 0 316 -85 694 -210 873 -288 1376 -447 1488 -470 65 -13 290 -4 762 31 380
28 1116 88 1139 94 11 2 15 0 10 -5 -23 -22 -996 -478 -1162 -544 l-92 -37
-158 26 c-169 29 -737 137 -1368 261 l-391 78 -31 60 c-65 125 -131 178 -197
156 -99 -33 -259 -238 -410 -529 l-60 -116 -230 -86 c-126 -48 -471 -177 -765
-288 -294 -111 -638 -241 -765 -288 -126 -48 -234 -89 -238 -93 -9 -8 903
-1115 918 -1115 6 1 301 356 657 790 l646 790 176 77 176 76 432 -113 c1281
-334 1526 -395 1595 -395 198 0 615 92 1114 244 290 89 426 135 898 305 196
70 391 136 433 146 50 12 78 24 81 34 2 9 28 25 58 35 30 11 105 43 168 73
l114 53 27 -32 c24 -28 34 -33 70 -32 68 2 219 85 358 197 16 13 13 5 -66
-169 -138 -303 -160 -504 -58 -532 46 -13 134 5 236 48 77 33 564 212 1261
466 304 110 408 144 444 144 76 0 176 20 229 47 l48 24 92 -89 c102 -100 176
-152 217 -152 27 0 78 35 112 77 16 19 1152 947 1184 966 7 5 50 -4 95 -19
120 -38 245 -43 364 -15 49 13 108 32 129 44 53 30 185 217 185 262 0 9 -7 30
-16 47 -13 25 -17 65 -18 172 -3 156 -19 225 -62 252 -30 20 -71 8 -174 -52
-98 -56 -142 -74 -184 -74 -47 0 -54 16 -22 49 31 32 33 69 6 103 -26 34 -68
41 -132 22 -159 -48 -203 -119 -216 -348 l-7 -119 -619 -439 c-677 -479 -630
-452 -709 -411 -28 14 -29 16 -22 74 4 33 16 77 26 99 43 89 64 286 36 340
-11 21 -19 25 -58 23 -24 -1 -78 -15 -119 -33 -94 -39 -148 -47 -175 -26 -20
15 -19 16 18 48 66 57 59 147 -12 163 -39 8 -146 -19 -192 -49 -20 -14 -52
-49 -72 -79 l-36 -55 -113 114 c-61 63 -110 116 -107 118 3 3 68 19 146 35 77
16 208 48 289 70 82 21 169 42 194 46 25 4 67 13 94 21 27 8 51 14 52 14 1 0
13 -24 27 -52 37 -75 77 -119 138 -153 50 -28 62 -30 154 -30 117 0 155 15
222 88 48 52 74 99 99 182 27 87 27 403 1 489 l-18 59 29 66 c17 36 37 82 45
102 12 28 24 40 54 49 123 41 194 135 230 307 21 101 24 490 5 608 -17 100
-63 241 -98 297 -58 94 -111 134 -203 153 l-54 11 -54 89 c-73 121 -119 179
-219 274 -136 131 -272 208 -442 251 -111 28 -279 27 -392 -4z m1223 -721
c122 -80 200 -390 183 -725 -14 -277 -56 -399 -156 -450 -44 -22 -44 -22 -30
15 20 54 50 235 59 355 16 238 -15 483 -88 695 -20 61 -41 118 -45 127 -7 15
-4 16 22 9 16 -5 41 -16 55 -26z m-1629 -1861 c73 -67 155 -120 258 -169 l90
-43 -93 -21 c-52 -12 -129 -27 -171 -35 l-77 -13 -38 41 c-22 23 -56 60 -76
84 l-38 43 26 33 c14 19 27 45 28 58 3 24 24 68 33 68 4 0 29 -21 58 -46z
m-25 -669 l240 -240 -17 -107 c-10 -59 -22 -112 -27 -117 -6 -6 -203 -86 -440
-179 -236 -94 -511 -202 -609 -241 -99 -39 -183 -70 -186 -69 -10 5 516 1129
545 1166 l26 33 114 -3 114 -2 240 -241z"/>
</g>
</svg>
